<svg width="32" height="29" viewBox="0 0 32 29" fill="none" xmlns="http://www.w3.org/2000/svg">
<g filter="url(#filter0_d_181_3606)">
<path fill-rule="evenodd" clip-rule="evenodd" d="M5.56643 12C5.58302 12.0301 5.60133 12.063 5.62133 12.0986C5.73999 12.3096 5.91836 12.6133 6.15439 12.9787C6.62709 13.7107 7.32783 14.6853 8.23977 15.658C10.0728 17.6132 12.6998 19.5 16 19.5C19.3002 19.5 21.9272 17.6132 23.7602 15.658C24.6722 14.6853 25.3729 13.7107 25.8456 12.9787C26.0816 12.6133 26.26 12.3096 26.3787 12.0986C26.3987 12.0631 26.417 12.0301 26.4336 12C26.417 11.9699 26.3987 11.937 26.3787 11.9014C26.26 11.6904 26.0816 11.3867 25.8456 11.0213C25.3729 10.2893 24.6722 9.3147 23.7602 8.34197C21.9272 6.38678 19.3002 4.5 16 4.5C12.6998 4.5 10.0728 6.38678 8.23977 8.34197C7.32783 9.3147 6.62709 10.2893 6.15439 11.0213C5.91836 11.3867 5.73999 11.6904 5.62133 11.9014C5.60133 11.937 5.58302 11.9699 5.56643 12ZM27 12C27.4472 11.7764 27.4471 11.7762 27.447 11.776L27.4459 11.7737L27.443 11.7681L27.433 11.7484C27.4243 11.7316 27.4118 11.7074 27.3953 11.6763C27.3624 11.6141 27.314 11.5244 27.2502 11.4111C27.1228 11.1846 26.934 10.8633 26.6856 10.4787C26.1896 9.71066 25.4528 8.6853 24.4898 7.65803C22.5728 5.61322 19.6998 3.5 16 3.5C12.3002 3.5 9.42724 5.61322 7.51023 7.65803C6.54717 8.6853 5.81041 9.71066 5.31436 10.4787C5.06602 10.8633 4.87719 11.1846 4.74976 11.4111C4.68602 11.5244 4.63759 11.6141 4.60469 11.6763C4.58824 11.7074 4.57567 11.7316 4.56701 11.7484L4.55696 11.7681L4.55414 11.7737L4.55328 11.7754C4.55317 11.7756 4.55279 11.7764 5 12L4.55279 11.7764C4.4824 11.9172 4.4824 12.0828 4.55279 12.2236L5 12C4.55279 12.2236 4.55268 12.2234 4.55279 12.2236L4.55328 12.2246L4.55414 12.2263L4.55696 12.2319L4.56701 12.2516C4.57567 12.2684 4.58824 12.2926 4.60469 12.3237C4.63759 12.3859 4.68602 12.4756 4.74976 12.5889C4.87719 12.8154 5.06602 13.1367 5.31436 13.5213C5.81041 14.2893 6.54717 15.3147 7.51023 16.342C9.42724 18.3868 12.3002 20.5 16 20.5C19.6998 20.5 22.5728 18.3868 24.4898 16.342C25.4528 15.3147 26.1896 14.2893 26.6856 13.5213C26.934 13.1367 27.1228 12.8154 27.2502 12.5889C27.314 12.4756 27.3624 12.3859 27.3953 12.3237C27.4118 12.2926 27.4243 12.2684 27.433 12.2516L27.443 12.2319L27.4459 12.2263L27.4467 12.2246C27.4468 12.2244 27.4472 12.2236 27 12ZM27 12L27.4472 12.2236C27.5176 12.0828 27.5174 11.9168 27.447 11.776L27 12Z" fill="#414141"/>
<path fill-rule="evenodd" clip-rule="evenodd" d="M12.5 12C12.5 10.067 14.067 8.5 16 8.5C17.933 8.5 19.5 10.067 19.5 12C19.5 13.933 17.933 15.5 16 15.5C14.067 15.5 12.5 13.933 12.5 12ZM16 9.5C14.6193 9.5 13.5 10.6193 13.5 12C13.5 13.3807 14.6193 14.5 16 14.5C17.3807 14.5 18.5 13.3807 18.5 12C18.5 10.6193 17.3807 9.5 16 9.5Z" fill="#414141"/>
</g>
<defs>
<filter id="filter0_d_181_3606" x="0" y="0" width="32" height="32" filterUnits="userSpaceOnUse" color-interpolation-filters="sRGB">
<feFlood flood-opacity="0" result="BackgroundImageFix"/>
<feColorMatrix in="SourceAlpha" type="matrix" values="0 0 0 0 0 0 0 0 0 0 0 0 0 0 0 0 0 0 127 0" result="hardAlpha"/>
<feOffset dy="4"/>
<feGaussianBlur stdDeviation="2"/>
<feComposite in2="hardAlpha" operator="out"/>
<feColorMatrix type="matrix" values="0 0 0 0 0 0 0 0 0 0 0 0 0 0 0 0 0 0 0.25 0"/>
<feBlend mode="normal" in2="BackgroundImageFix" result="effect1_dropShadow_181_3606"/>
<feBlend mode="normal" in="SourceGraphic" in2="effect1_dropShadow_181_3606" result="shape"/>
</filter>
</defs>
</svg>
